<svg id="bac65d19-db6c-4755-9673-bcd08c495ea3" data-name="Capa 1" xmlns="http://www.w3.org/2000/svg" viewBox="0 0 567 565.95"><defs><style>.b82f84b2-8c21-45aa-89b8-e8e27e32d9ed{fill:#008e5b;}</style></defs><path class="b82f84b2-8c21-45aa-89b8-e8e27e32d9ed" d="M569.12,325.25a12.34,12.34,0,0,0-12.67-12c-.39,0-38.45.9-69.94-13A88.88,88.88,0,0,0,482.94,289a13.89,13.89,0,0,0-.85-3.56,21,21,0,0,0-1.4-3.21,14.15,14.15,0,0,0-.82-3.28,149.74,149.74,0,0,0,40.82-18.1A12.33,12.33,0,1,0,507,240.37c-5.24,3.49-21.26,12.38-37.76,15.75-3.18-5.94-6.72-12-10.8-18.39l-.08-.12c-3.27-5-6.57-10-9.76-14.72-2.83-4.24-5.63-8.43-8.37-12.61l2.32-2.44.29-.31c4.86-5.45,21-21,36.88-27.62,19.83-8.21,47.44-4.32,47.7-4.28a12.33,12.33,0,0,0,3.62-24.4,147.7,147.7,0,0,0-42.34.69,127.84,127.84,0,0,0-3-32,12.33,12.33,0,0,0-23.95,5.91c0,.19,4.23,18,1.3,34.73-16.79,8.82-30.86,22.45-36.28,28.08A202.67,202.67,0,0,1,412,157.32l-.07-.18c-.49-1.28-1-2.86-1.44-4.53s-1.11-3.83-1.85-5.85a117.08,117.08,0,0,1-4-30c0-20.24,4.45-42.09,14-68.77a12.33,12.33,0,1,0-23.21-8.32c-10.56,29.44-15.47,54-15.46,77.13v.05c0,1.29,0,2.58.08,3.87-32.7-10.71-65.42-10-67-9.91a12.33,12.33,0,0,0,.69,24.65c.4,0,38.47-.9,70,13,.42,1.8.86,3.58,1.35,5.36l.16.57.22.56c.49,1.28.95,2.86,1.43,4.53.57,2,1.22,4.17,2,6.37a237.48,237.48,0,0,0,20.26,41.3L404.47,212l-.27.3c-.18.2-17.84,19.76-36.89,27.64-19.74,8.16-47.2,4.35-47.71,4.28a12.33,12.33,0,0,0-3.61,24.4,130.86,130.86,0,0,0,13.07,1.09c12.35.48,31.36-.23,47.68-7,23.49-9.72,43.55-31.45,45.7-33.82l.32-.34,5.34,8c3.14,4.7,6.39,9.56,9.57,14.44a215.36,215.36,0,0,1,18.53,35.18,14.19,14.19,0,0,0,.85,3.59,20.85,20.85,0,0,0,1.4,3.2,14.38,14.38,0,0,0,1.11,4c3.19,7.55,4.55,15.86,5.46,23,1.7,14.59-.37,29.21-2.85,42.84a12.34,12.34,0,0,0,9.93,14.35,13,13,0,0,0,1.74.19,12.34,12.34,0,0,0,12.6-10.12c2.14-11.75,4.13-25.24,3.81-39.25,22.44,7.33,44.87,9.28,57.23,9.75,5.62.22,9.16.14,9.66.12A12.32,12.32,0,0,0,569.12,325.25Z" transform="translate(-4.49 -6.05)"/><path class="b82f84b2-8c21-45aa-89b8-e8e27e32d9ed" d="M313.64,75.77a12.32,12.32,0,0,0-13.93-10.48c-2,.28-43.83,6.42-78.32,27.45-7.06-33.74-24.13-61.8-25-63.17a12.33,12.33,0,0,0-21,12.92c.2.33,20.1,33.16,23.75,67.3a173.19,173.19,0,0,0-14.93,16.39,149.27,149.27,0,0,0-36.3-26.52A12.33,12.33,0,1,0,137,121.77c5.65,2.79,21.4,12.24,32.57,24.88a269.44,269.44,0,0,0-18.93,34.76l-5.27,10.69-.26.56c0,.06-.33.75-.89,2l-2.74-.65c-1.65-.4-3.22-.76-4.75-1.16a142.72,142.72,0,0,1-21.3-7.37c-9.48-4.18-16.78-8.87-22.34-14.36A95.52,95.52,0,0,1,78,150.86,120.27,120.27,0,0,1,71,137c-.08-.2-.17-.4-.25-.61a12.33,12.33,0,0,0-22.9,9.16c.13.33.27.66.41,1a143,143,0,0,0,8.41,16.72,130.73,130.73,0,0,0,12.92,18.58,126.9,126.9,0,0,0-26.26,18.6,12.33,12.33,0,0,0,17.07,17.8c.15-.14,13.45-12.69,29.49-18.53A116.27,116.27,0,0,0,105.48,208a167.4,167.4,0,0,0,25,8.66c.61.16,1.19.29,1.8.44-8.48,14.25-20.74,31.8-35.62,44.27-30.43,25.51-81.08,33-81.57,33.07A12.33,12.33,0,0,0,16.33,319a12.8,12.8,0,0,0,2.22-.11c2.35-.33,58.06-8.49,94-38.59,19.9-16.68,35.32-40.26,44.75-57.1,2.12.52,4.25,1,6.37,1.53l2,.49a141.92,141.92,0,0,1,18.63,5.87c10.15,4,17.64,8.1,23.58,13,5.75,4.75,11.13,11.15,16.45,19.54a12.33,12.33,0,0,0,20.84-13.19,126.68,126.68,0,0,0-9.93-13.69,126.94,126.94,0,0,0,26.24-18.59,12.33,12.33,0,1,0-17.08-17.78c-.14.13-13.49,12.66-29.41,18.48a123.34,123.34,0,0,0-21.71-10.75,167.09,167.09,0,0,0-21.86-6.89l-2-.49-.67-.16,4.19-8.5.25-.56c.2-.44,19.46-44.42,48.44-68.71,30.32-25.42,80.72-32.95,81.58-33.07A12.34,12.34,0,0,0,313.64,75.77Z" transform="translate(-4.49 -6.05)"/><path class="b82f84b2-8c21-45aa-89b8-e8e27e32d9ed" d="M448.69,505.38c-.95-1.07-1.91-2.22-2.92-3.43a82.86,82.86,0,0,0-8.85-9.48c-.34-.4-.74-.91-1.14-1.4-.8-1-1.7-2.16-2.74-3.27l-.27-.3-.3-.29c-14.8-14-31.33-28.34-52-38.54l-.7-.31c-2.05-.87-4.21-1.72-6.3-2.55s-4-1.6-5.85-2.37l-.43-.18-.43-.14c-37.29-12.46-74.88-9.8-111.24-7.23l-.52,0c-29.43,2.34-67.21,2.3-99.24-18.63L154,415.37l-1.75-1c-5.35-2.94-10.15-7.08-15.23-11.46-1.91-1.65-3.89-3.36-6-5.08a12.33,12.33,0,0,0-15.66,19.06c1.86,1.52,3.72,3.13,5.53,4.69,5.35,4.62,10.86,9.38,17.64,13.37l1.11,1.2,1.19.8c3.53,2.37,7.17,4.53,10.88,6.54-25.59,23-41.28,51.64-42,53.05a12.33,12.33,0,1,0,21.7,11.73c.18-.35,18.42-33.7,46.16-54A159.1,159.1,0,0,0,198.06,459l1.31.19a150,150,0,0,0-4.71,44.31,12.33,12.33,0,0,0,11.81,11.52,10.77,10.77,0,0,0,1.27,0A12.34,12.34,0,0,0,219.28,502c0-.23-1.22-21.36,5.17-40.49a299.53,299.53,0,0,0,32.5-1l.36,0c7.17-.51,14.26-1,21.28-1.39.06.25.11.5.18.75,3.44,12,7.34,25.72,7.23,38.78a72.05,72.05,0,0,1-2.44,18.48,90.32,90.32,0,0,1-7.12,17,117,117,0,0,1-11.39,18,12.34,12.34,0,0,0,19.48,15.14,142.14,142.14,0,0,0,13.81-21.79,133.52,133.52,0,0,0,6.8-15.05,127,127,0,0,0,29.12,13.37,12.33,12.33,0,1,0,6.89-23.68c-.19-.05-17.63-5.27-30.68-16.18.09-1.67.18-3.35.19-5,.13-14.51-3.22-28.14-6.67-40.46,18.58.14,36.72,2.08,54.58,8,1.92.8,3.92,1.59,5.85,2.36s3.77,1.5,5.5,2.22c17.4,8.67,32,21.37,45.24,33.84.37.43.84,1,1.29,1.59.8,1,1.71,2.16,2.74,3.27l.52.56.59.5a57.34,57.34,0,0,1,6.53,7c1.1,1.31,2.23,2.66,3.43,4a12.33,12.33,0,0,0,18.43-16.39Z" transform="translate(-4.49 -6.05)"/><ellipse class="b82f84b2-8c21-45aa-89b8-e8e27e32d9ed" cx="345.92" cy="62.51" rx="11.95" ry="25.87" transform="translate(-5.03 115.89) rotate(-19.98)"/><ellipse class="b82f84b2-8c21-45aa-89b8-e8e27e32d9ed" cx="530.91" cy="381.89" rx="11.95" ry="25.87" transform="translate(-127.43 389.03) rotate(-36.88)"/><ellipse class="b82f84b2-8c21-45aa-89b8-e8e27e32d9ed" cx="348.36" cy="187.54" rx="25.87" ry="11.95" transform="translate(-39.27 82.88) rotate(-13.86)"/><ellipse class="b82f84b2-8c21-45aa-89b8-e8e27e32d9ed" cx="551.26" cy="281.47" rx="20.5" ry="9.47" transform="translate(-46.52 99.03) rotate(-10.49)"/><ellipse class="b82f84b2-8c21-45aa-89b8-e8e27e32d9ed" cx="503.13" cy="209.69" rx="20.5" ry="9.47" transform="translate(-5.15 411.75) rotate(-45.07)"/><ellipse class="b82f84b2-8c21-45aa-89b8-e8e27e32d9ed" cx="438.45" cy="99.51" rx="20.5" ry="9.47" transform="translate(135.33 429.56) rotate(-61.16)"/><ellipse class="b82f84b2-8c21-45aa-89b8-e8e27e32d9ed" cx="50.54" cy="366.49" rx="25.87" ry="11.95" transform="translate(-267.1 163.45) rotate(-49.98)"/><ellipse class="b82f84b2-8c21-45aa-89b8-e8e27e32d9ed" cx="247.61" cy="30.31" rx="25.87" ry="11.95" transform="translate(118.03 240.08) rotate(-66.88)"/><ellipse class="b82f84b2-8c21-45aa-89b8-e8e27e32d9ed" cx="243.3" cy="154.7" rx="25.87" ry="11.95" transform="translate(-16.99 15.64) rotate(-4.98)"/><ellipse class="b82f84b2-8c21-45aa-89b8-e8e27e32d9ed" cx="150.47" cy="62.89" rx="9.47" ry="20.5" transform="translate(-9.29 106.72) rotate(-40.49)"/><ellipse class="b82f84b2-8c21-45aa-89b8-e8e27e32d9ed" cx="112.38" cy="140.47" rx="9.47" ry="20.5" transform="translate(-56.79 206.81) rotate(-75.07)"/><ellipse class="b82f84b2-8c21-45aa-89b8-e8e27e32d9ed" cx="275.7" cy="246.96" rx="9.47" ry="20.5" transform="matrix(0.26, -0.97, 0.97, 0.26, -38.44, 443.68)"/><ellipse class="b82f84b2-8c21-45aa-89b8-e8e27e32d9ed" cx="49.3" cy="251.56" rx="20.5" ry="9.47" transform="translate(-9.59 -4.99) rotate(-1.16)"/><ellipse class="b82f84b2-8c21-45aa-89b8-e8e27e32d9ed" cx="477.58" cy="467.38" rx="11.95" ry="25.87" transform="translate(-70.28 850.27) rotate(-79.98)"/><ellipse class="b82f84b2-8c21-45aa-89b8-e8e27e32d9ed" cx="84.76" cy="451.88" rx="25.87" ry="11.95" transform="translate(-58.03 7.37) rotate(-6.88)"/><ellipse class="b82f84b2-8c21-45aa-89b8-e8e27e32d9ed" cx="161.55" cy="519.71" rx="20.5" ry="9.47" transform="translate(-386.76 492.37) rotate(-70.49)"/><ellipse class="b82f84b2-8c21-45aa-89b8-e8e27e32d9ed" cx="247.78" cy="513.91" rx="9.47" ry="20.5" transform="translate(-129.58 76.05) rotate(-15.07)"/><ellipse class="b82f84b2-8c21-45aa-89b8-e8e27e32d9ed" cx="375.54" cy="513" rx="9.47" ry="20.5" transform="translate(-215.77 262.33) rotate(-31.17)"/><path class="b82f84b2-8c21-45aa-89b8-e8e27e32d9ed" d="M326.37,391.74c-6.29.65-11.29,1-15.17,1h-1.29c-2.67,5.75-4.74,11.92-4.74,17.67,0,4.71,1.38,6.49,4.83,6.49,5.94,0,12-5.35,16.37-13.86l1.12.81c-4.14,9.16-11.89,16.05-20,16.05-5,0-7.67-2.67-7.67-8,0-4.79,2.07-12.17,5-19.55a16.75,16.75,0,0,1-3.11-.65V390.2c.87.08,2.16.25,3.8.33,4.82-11.68,11.46-22.79,15-22.79a1.79,1.79,0,0,1,1.81,1.78c0,2.84-6.46,11.28-11.46,21.25h3.19c3.79,0,8-.08,12.32-.49Z" transform="translate(-4.49 -6.05)"/><path class="b82f84b2-8c21-45aa-89b8-e8e27e32d9ed" d="M338.69,390.45c0,2.67-9,12.48-9,20.11,0,3.89,1.38,4.86,4.22,4.86,3.88,0,8.36-3.16,13.27-12.4l.78.81c-3.36,9.32-10.26,14.43-17,14.43-4.48,0-6.63-3-6.63-6.81,0-6.16,6.55-22.79,12.4-22.79A1.76,1.76,0,0,1,338.69,390.45Zm-.86-12c0-2.27,3.53-4.21,6.29-4.21,1.72,0,2.84.65,2.84,2.51,0,2-2.84,4.38-5.6,4.38C339.47,381.12,337.83,380.31,337.83,378.44Z" transform="translate(-4.49 -6.05)"/><path class="b82f84b2-8c21-45aa-89b8-e8e27e32d9ed" d="M350.32,407.64a12.48,12.48,0,0,0-.34,2.92c0,3.32,1.46,6.81,6.81,6.81,7.32,0,15-6.57,19.3-14.35l1,.73c-4.65,9.73-13.61,16-22.14,16-7,0-10.52-4.14-10.52-9.41,0-9.65,11.72-23.35,21.89-23.35,2.67,0,5.34,1,5.34,4.94C371.69,400.18,360.14,406.75,350.32,407.64Zm.43-1.54c6.12-2,17.15-7.79,17.15-14.76,0-1.22-.34-1.87-1.81-1.87C360.58,389.47,353.08,398.39,350.75,406.1Z" transform="translate(-4.49 -6.05)"/><path class="b82f84b2-8c21-45aa-89b8-e8e27e32d9ed" d="M374.54,405.85a113.83,113.83,0,0,0,7-15.4,2.62,2.62,0,0,1-.87-1.95c0-3.24,2.68-5.51,3.62-5.51,1.21,0,1.21,1.37,1.21,1.94s-1,2.68-1,3c0,3,8.79,4.38,8.79,11.27,0,4.95-4.31,10.3-4.31,13.71,0,1.95,1.21,2.43,2.59,2.43,5.43,0,12.49-7.38,14.65-12.08l1.12.81c-3.28,6.89-10.69,14.19-18,14.19-3.88,0-6.29-2.11-6.29-5.27,0-4.78,4.74-10.87,4.74-15.16,0-3.49-2.67-4.71-4.83-6.17a127.43,127.43,0,0,1-7.67,15.57Z" transform="translate(-4.49 -6.05)"/><path class="b82f84b2-8c21-45aa-89b8-e8e27e32d9ed" d="M404.61,405.85a113.83,113.83,0,0,0,7-15.4,2.61,2.61,0,0,1-.86-1.95c0-3.24,2.67-5.51,3.62-5.51,1.2,0,1.2,1.37,1.2,1.94s-.95,2.68-.95,3c0,3,8.79,4.38,8.79,11.27,0,4.95-4.31,10.3-4.31,13.71,0,1.95,1.21,2.43,2.59,2.43,5.43,0,12.49-7.38,14.65-12.08l1.12.81c-3.28,6.89-10.69,14.19-18,14.19-3.88,0-6.29-2.11-6.29-5.27,0-4.78,4.74-10.87,4.74-15.16,0-3.49-2.67-4.71-4.83-6.17a127.43,127.43,0,0,1-7.67,15.57Z" transform="translate(-4.49 -6.05)"/><path class="b82f84b2-8c21-45aa-89b8-e8e27e32d9ed" d="M462.17,401c0,1.86-5,7.38-5,11.27,0,1.62.86,3.57,2.93,3.57,3.1,0,8.62-4.22,13.79-12.81l.86.81c-3.62,8.75-10.94,14.76-17.06,14.76-4.22,0-6.21-2.84-6.21-5.68a13,13,0,0,1,.26-2.35c-5,6.24-8.79,9.41-13,9.41-3.62,0-6.38-2.2-6.38-6.74,0-9.65,12.67-24.89,23.87-24.89,4.48,0,7.85,2.43,7.85,6.08,0,2.67-1.73,3.49-4.23,3.49a10.81,10.81,0,0,0,.43-2.84c0-2.43-1.12-4.54-4.22-4.54-8.1,0-17.75,15.08-17.75,23,0,2.19.78,3.16,2.33,3.16,5.34,0,13.87-11.84,18.09-17.68C459.76,399.12,462.17,399.77,462.17,401Z" transform="translate(-4.49 -6.05)"/><path class="b82f84b2-8c21-45aa-89b8-e8e27e32d9ed" d="M474,414.78c0-1.79,2.76-3.33,5-3.33,1.38,0,2.24.49,2.24,1.95,0,1.62-2.24,3.56-4.48,3.56C475.27,417,474,416.32,474,414.78Z" transform="translate(-4.49 -6.05)"/><path class="b82f84b2-8c21-45aa-89b8-e8e27e32d9ed" d="M123.79,301.06a19.3,19.3,0,0,1,7.3,1.37,20.28,20.28,0,0,1,6,3.72l-5.32,4.93a11.38,11.38,0,0,0-8-3.08,11.21,11.21,0,0,0-8,3.08,9.89,9.89,0,0,0,0,14.77,11.92,11.92,0,0,0,16,0l5.32,4.92a19.72,19.72,0,0,1-6,3.75,19.39,19.39,0,0,1-7.31,1.37,18.85,18.85,0,0,1-13.29-5.12,16.49,16.49,0,0,1,0-24.64A18.82,18.82,0,0,1,123.81,301Z" transform="translate(-4.49 -6.05)"/><path class="b82f84b2-8c21-45aa-89b8-e8e27e32d9ed" d="M171.12,306.11a16.45,16.45,0,0,1,0,24.64,19.85,19.85,0,0,1-26.61,0,16.51,16.51,0,0,1,0-24.64,19.79,19.79,0,0,1,26.61,0ZM149.83,311a9.9,9.9,0,0,0,0,14.78,11.92,11.92,0,0,0,15.95,0,9.87,9.87,0,0,0,0-14.78,11.86,11.86,0,0,0-15.95,0Z" transform="translate(-4.49 -6.05)"/><path class="b82f84b2-8c21-45aa-89b8-e8e27e32d9ed" d="M197.58,323.58l18.17-23.08v35.16h-7.47V321.42l-10.7,13.68-10.7-13.68v14.24h-7.47V300.5Z" transform="translate(-4.49 -6.05)"/><path class="b82f84b2-8c21-45aa-89b8-e8e27e32d9ed" d="M219.46,325.3V301.14h13a13.11,13.11,0,0,1,9.23,3.56,11.41,11.41,0,0,1,0,17.06,13.18,13.18,0,0,1-9.23,3.54h-5.57v10.36h-7.47Zm13-6.88a5.58,5.58,0,0,0,3.95-1.52,4.78,4.78,0,0,0,1.64-3.66,4.88,4.88,0,0,0-1.64-3.66A5.51,5.51,0,0,0,232.5,308h-5.57V318.4Z" transform="translate(-4.49 -6.05)"/><path class="b82f84b2-8c21-45aa-89b8-e8e27e32d9ed" d="M250.31,330.32c-.84,1.76-1.69,3.49-2.55,5.25h-8l16.9-35.07,16.95,35.07h-8c-.83-1.73-1.66-3.49-2.49-5.22h-12.7Zm9.68-6.07-3.28-7.18-3.3,7.18Z" transform="translate(-4.49 -6.05)"/><path class="b82f84b2-8c21-45aa-89b8-e8e27e32d9ed" d="M276.42,301.1h12.11a14.24,14.24,0,0,1,9.69,3.53,9.78,9.78,0,0,1,3.61,7.93v1.07a10,10,0,0,1-2.36,6.51c-1.57,2.05-2.89,2.65-5.34,3.51l8.41,12h-9.11l-9.52-13.49v13.49h-7.47Zm12.81,16.64a4.32,4.32,0,0,0,3.42-1.37,4.56,4.56,0,0,0,1.48-3.6,4.19,4.19,0,0,0-1.48-3.38,7,7,0,0,0-4.58-1.39h-4.19v9.72Z" transform="translate(-4.49 -6.05)"/><path class="b82f84b2-8c21-45aa-89b8-e8e27e32d9ed" d="M322.34,301.14h9.32V308h-9.32v27.62h-7.47V308h-9.31v-6.9h16.78Z" transform="translate(-4.49 -6.05)"/><path class="b82f84b2-8c21-45aa-89b8-e8e27e32d9ed" d="M334.9,301.14h7.47v34.52H334.9Z" transform="translate(-4.49 -6.05)"/><path class="b82f84b2-8c21-45aa-89b8-e8e27e32d9ed" d="M364.24,323.58l18.18-23.08v35.16H375V321.42L364.24,335.1l-10.7-13.68v14.24h-7.47V300.5Z" transform="translate(-4.49 -6.05)"/><path class="b82f84b2-8c21-45aa-89b8-e8e27e32d9ed" d="M417.34,306.11a16.47,16.47,0,0,1,0,24.64,19.85,19.85,0,0,1-26.61,0,16.49,16.49,0,0,1,0-24.64,19.79,19.79,0,0,1,26.61,0ZM396,311a9.92,9.92,0,0,0,0,14.78,11.94,11.94,0,0,0,16,0A9.87,9.87,0,0,0,412,311a11.88,11.88,0,0,0-16,0Z" transform="translate(-4.49 -6.05)"/><path class="b82f84b2-8c21-45aa-89b8-e8e27e32d9ed" d="M436.67,328.81a3.67,3.67,0,0,0,3.77-3.49,2.68,2.68,0,0,0-1.89-2.85c-2.68-.92-2-.71-4.65-1.54a14.84,14.84,0,0,1-7-4.78,7.46,7.46,0,0,1-1.52-4.77A9.73,9.73,0,0,1,428.7,304a11.89,11.89,0,0,1,16,0,9.73,9.73,0,0,1,3.33,7.39h-7.51a3.77,3.77,0,0,0-7.52,0,3.11,3.11,0,0,0,1.62,2.83c2.22,1.32,2,1.07,4.63,1.79a14.46,14.46,0,0,1,7.23,4.54,7.26,7.26,0,0,1,1.58,4.8,9.74,9.74,0,0,1-3.33,7.41,11.9,11.9,0,0,1-16,0,9.74,9.74,0,0,1-3.33-7.41h7.54a3.64,3.64,0,0,0,3.77,3.49Z" transform="translate(-4.49 -6.05)"/><path class="b82f84b2-8c21-45aa-89b8-e8e27e32d9ed" d="M121.69,343.18v5H110.85v5H119v5h-8.13v5h10.84v5H105.41v-25.1Z" transform="translate(-4.49 -6.05)"/><path class="b82f84b2-8c21-45aa-89b8-e8e27e32d9ed" d="M129.64,343.18v20.07h10.84v5H124.2v-25.1Z" transform="translate(-4.49 -6.05)"/><path class="b82f84b2-8c21-45aa-89b8-e8e27e32d9ed" d="M152.58,360.74V343.18h9.5a9.55,9.55,0,0,1,6.72,2.59,8.28,8.28,0,0,1,0,12.41,9.61,9.61,0,0,1-6.72,2.56H158v7.54h-5.44Zm9.5-5a4.1,4.1,0,0,0,2.88-1.11,3.55,3.55,0,0,0,0-5.32,4,4,0,0,0-2.88-1.12H158v7.53Z" transform="translate(-4.49 -6.05)"/><path class="b82f84b2-8c21-45aa-89b8-e8e27e32d9ed" d="M196.66,346.79a11.95,11.95,0,0,1,0,17.93,14.48,14.48,0,0,1-19.38,0,12,12,0,0,1,0-17.93,14.45,14.45,0,0,1,19.38,0Zm-15.5,3.57a7.19,7.19,0,0,0,0,10.74,8.25,8.25,0,0,0,5.81,2.23,8.33,8.33,0,0,0,5.81-2.23,7.17,7.17,0,0,0,0-10.74,8.25,8.25,0,0,0-5.81-2.24A8.17,8.17,0,0,0,181.16,350.36Z" transform="translate(-4.49 -6.05)"/><path class="b82f84b2-8c21-45aa-89b8-e8e27e32d9ed" d="M209.35,343.23a14.41,14.41,0,0,1,9.9,3.69c4.85,4.48,4.85,13.22,0,17.69a14.49,14.49,0,0,1-9.9,3.67h-6.7v-25h6.7Zm0,20a8.34,8.34,0,0,0,5.86-2,7.86,7.86,0,0,0,0-10.93,8.36,8.36,0,0,0-5.89-2h-1.25v15h1.3Z" transform="translate(-4.49 -6.05)"/><path class="b82f84b2-8c21-45aa-89b8-e8e27e32d9ed" d="M241.18,343.18v5H230.33v5h8.14v5h-8.14v5h10.85v5H224.89v-25.1Z" transform="translate(-4.49 -6.05)"/><path class="b82f84b2-8c21-45aa-89b8-e8e27e32d9ed" d="M243.67,343.15h8.82a10.37,10.37,0,0,1,7.06,2.57,7.1,7.1,0,0,1,2.62,5.76v.78a7.24,7.24,0,0,1-1.71,4.73,6.94,6.94,0,0,1-3.89,2.56l6.13,8.73h-6.64l-6.93-9.81v9.81h-5.44Zm9.33,12.1a3.14,3.14,0,0,0,2.49-1,3.29,3.29,0,0,0,1.08-2.61,3,3,0,0,0-1.08-2.46,5.13,5.13,0,0,0-3.34-1h-3v7.07Z" transform="translate(-4.49 -6.05)"/><path class="b82f84b2-8c21-45aa-89b8-e8e27e32d9ed" d="M282,343.23a14.41,14.41,0,0,1,9.9,3.69c4.85,4.48,4.85,13.22,0,17.69a14.49,14.49,0,0,1-9.9,3.67h-6.7v-25H282Zm0,20a8.3,8.3,0,0,0,5.85-2,7.85,7.85,0,0,0,0-10.93,8.36,8.36,0,0,0-5.89-2h-1.25v15H282Z" transform="translate(-4.49 -6.05)"/><path class="b82f84b2-8c21-45aa-89b8-e8e27e32d9ed" d="M313.8,343.18v5H303v5h8.13v5H303v5H313.8v5H297.52v-25.1Z" transform="translate(-4.49 -6.05)"/><path class="b82f84b2-8c21-45aa-89b8-e8e27e32d9ed" d="M331.85,343.18v20.07h10.84v5H326.41v-25.1Z" transform="translate(-4.49 -6.05)"/><path class="b82f84b2-8c21-45aa-89b8-e8e27e32d9ed" d="M351.67,364.4c-.61,1.28-1.23,2.54-1.85,3.82H344l12.31-25.5,12.34,25.5h-5.86l-1.81-3.8H351.7Zm7.05-4.42-2.39-5.21L353.92,360Z" transform="translate(-4.49 -6.05)"/></svg>