<svg id="a28c1291-5a2d-4361-8f78-49db003fd469" data-name="textos fondo" xmlns="http://www.w3.org/2000/svg" viewBox="0 0 25 24.91"><defs><style>.afd79409-d2da-4f79-8dc7-28a52266869a{fill:#008e5b;}.aeb5072d-6110-4fdc-8b9a-73870ae2bdcd{fill:#31aa47;}.a391b4df-2902-42e7-bf59-b0f8cb0aa115{fill:#a6ca56;}</style></defs><path class="afd79409-d2da-4f79-8dc7-28a52266869a" d="M25,9v7.31l-.23.14A27.09,27.09,0,0,0,21,20a27,27,0,0,0-2.74,5H16.85v-.11s.2-2,.46-3.19a19.57,19.57,0,0,1,1.86-5.59C20.56,13.26,23.93,10,25,9Z" transform="translate(0 -0.04)"/><path class="aeb5072d-6110-4fdc-8b9a-73870ae2bdcd" d="M25,17.49V25H19.1A13.27,13.27,0,0,1,21.24,21,17.75,17.75,0,0,1,25,17.49Z" transform="translate(0 -0.04)"/><path class="a391b4df-2902-42e7-bf59-b0f8cb0aa115" d="M19.54,0H25V7.41c-1.92,1.83-5.77,5.81-7.15,9.38A34.94,34.94,0,0,0,16.35,25H14.16v-.07a75.86,75.86,0,0,1,1.43-13.77A82.54,82.54,0,0,1,19.54,0Z" transform="translate(0 -0.04)"/><path class="aeb5072d-6110-4fdc-8b9a-73870ae2bdcd" d="M7.9,0H18.26c-.21.52-1.72,4.24-2.47,6.77a93.9,93.9,0,0,0-2,9.45,74.3,74.3,0,0,0-2.65-9.58A72,72,0,0,0,7.9,0Z" transform="translate(0 -0.04)"/><path class="a391b4df-2902-42e7-bf59-b0f8cb0aa115" d="M13.65,25H12.49l-.08-.24c-1.58-4.88-2.45-7.25-5.8-10.54A30.72,30.72,0,0,0,0,9.83V.05H6.73c.58,1.05,4,7.22,5.22,11.64C13.39,16.7,13.65,25,13.65,25Z" transform="translate(0 -0.04)"/><path class="afd79409-d2da-4f79-8dc7-28a52266869a" d="M11.92,25H6.73a22.53,22.53,0,0,0-2.94-2.73A22.52,22.52,0,0,0,0,20.33V11.15a33.7,33.7,0,0,1,6.73,4.73A24.16,24.16,0,0,1,11.92,25Z" transform="translate(0 -0.04)"/><path class="aeb5072d-6110-4fdc-8b9a-73870ae2bdcd" d="M5.84,25H0V21.48l0-.07S2.65,21.7,5.84,25Z" transform="translate(0 -0.04)"/></svg>