<svg id="a975c1c7-bae8-467d-b649-ca4a9a4204b2" data-name="textos fondo" xmlns="http://www.w3.org/2000/svg" viewBox="0 0 1412.92 398"><defs><style>.edfc2d16-9647-48ab-8556-39bdc1f079a1{fill:#6b6b6a;}.e6b4cbd0-0a60-43db-807e-31daf50b865a{fill:#008e5b;}.a7ebdae2-0bb3-4980-8fea-6b68ae292f04{fill:#31aa47;}.a84c37e5-e150-41ee-bf65-9b39df834b9f{fill:#a6ca56;}.b2c84d7b-5e0e-4dad-8528-0d220f8df5ae{fill:#5e5e60;}</style></defs><path class="edfc2d16-9647-48ab-8556-39bdc1f079a1" d="M464.31,25.68c4.19.58,7.48,1,9.9,1.17s5.39.28,8.93.28l48.07-1.45q23.43,0,36.84,3.15A67.09,67.09,0,0,1,593.41,41q12,9.06,19.45,26a88.39,88.39,0,0,1,7.49,36.23q0,38.17-25,62T531.94,189l-45.66-1c-4.18,0-7.69.06-10.5.2s-6.65.37-11.47.76l2.17-87.44ZM554.4,46q-11.83-6.3-32.13-6.28l-19.79,1.19-1.46,71,1,62.8,17.59.73q21.42,0,34.31-7.6t18.19-19.57a116.74,116.74,0,0,0,7.46-21.75,96.62,96.62,0,0,0,2.17-20.89q0-21.47-7.25-37.08T554.4,46Z" transform="translate(-3.58 -1)"/><path class="edfc2d16-9647-48ab-8556-39bdc1f079a1" d="M649.33,25.68h39.13L686,64.08l-.71,38.9q0,34.08,7.48,53.5t35.75,19.44q15.23,0,26-7.85A37.63,37.63,0,0,0,768.9,148.4a101.3,101.3,0,0,0,4.35-22.58q.72-10.75.73-42.4l-1.45-57.74H796.2l-2.9,76.95q0,22.92-1.45,33.28c-1,6.93-3.45,15-7.45,24.12s-11.85,16.76-23.48,22.81a82.3,82.3,0,0,1-38.39,9q-23.13,0-40.46-8T659.2,165A76.65,76.65,0,0,1,652,144.84a135.19,135.19,0,0,1-1.68-23.63l.24-5.32v-33Z" transform="translate(-3.58 -1)"/><path class="edfc2d16-9647-48ab-8556-39bdc1f079a1" d="M990.41,188.92c-2.1,0-3.87,0-5.32.05h-6.28q-6,0-13-.05l-23.42-75.14L928.09,72.72l-16,43q-6.76,18.12-14,37.8t-11.6,35.4l-5.91.05h-6.4q-5.57,0-12.32-.05l-19.08-69.1L829.77,76.1,818.66,39.87c-1.13-3.21-2-6-2.78-8.21a19.84,19.84,0,0,1-1.09-6c1.78,0,4.37,0,7.75,0s6.86,0,10.41,0h2.66c3.23,0,6.37,0,9.44,0l8.72,0,20,78.53,11.33,41.44,2.17-6.3,24.41-68.83,11.37-33.93,3.62-10.91q7.19.06,12,.06h4.54c1.6,0,3.91,0,6.95-.06l12.69,41.79,25.87,76.81,3.62-11.82,10.09-30.68q6.5-18.85,11.07-35.87t10.1-40.23c2.57,0,4.49,0,5.78.06h9.75c1.51,0,3.73,0,6.61-.06v2.19q-8.46,21.94-20,53.25t-20.91,59.29Q995.47,168.4,990.41,188.92Z" transform="translate(-3.58 -1)"/><path class="edfc2d16-9647-48ab-8556-39bdc1f079a1" d="M1100.07,143.33v28.74q22.58,0,31.06-.48t24.26-2.43c-.16,1.77-.33,3.68-.49,5.74s-.24,3.73-.24,5v3.94a29,29,0,0,0,.73,5.13l-43.24-1-49.28,1,2.18-78.74-1.45-84.55c4.66.73,9.7,1.28,15.09,1.64s10.91.53,16.55.53l61.6-2.17A41.59,41.59,0,0,0,1155.39,36a40.74,40.74,0,0,0,1.45,10.74l-55.56-2.89-1.21,51.67,55.32-1.91a37.65,37.65,0,0,0-1.45,9.76,39.3,39.3,0,0,0,1.45,10.28l-55.32-2.17v31.89Z" transform="translate(-3.58 -1)"/><path class="edfc2d16-9647-48ab-8556-39bdc1f079a1" d="M1235.83,37.53q-10.87,0-18.12,6A19.18,19.18,0,0,0,1210.46,59q0,13.5,17.63,23.61t34.79,19.79q18.58,14.23,18.6,36.42,0,24.6-16.91,38.83t-45.89,14.23a84.26,84.26,0,0,1-20.3-2.17,80.17,80.17,0,0,1-19.09-8,171.67,171.67,0,0,0,7-29.46l5.07.23a30.3,30.3,0,0,0,11.36,18.72q8.93,6.9,22.22,6.9c8,0,14.74-2.35,20-7a22.19,22.19,0,0,0,8-17.38q0-13.73-17.75-24t-34.66-20.15Q1182.2,95.38,1182.19,73q0-22.17,14.86-35.69t39.26-13.52q22.21,0,39.37,11.36A73.6,73.6,0,0,0,1271,47.53c-1,3.87-2.13,8.19-3.27,12.94h-4.11q-3.37-11.2-10.5-17.09A26.37,26.37,0,0,0,1235.83,37.53Z" transform="translate(-3.58 -1)"/><path class="edfc2d16-9647-48ab-8556-39bdc1f079a1" d="M1373.26,189h-39.12l2.65-76.57V43.81a309.16,309.16,0,0,0-44,3.13,60.46,60.46,0,0,0,1.2-11V32.77a24.47,24.47,0,0,0-1.2-7.09l57.36,2.17,66.31-2.17-.73,12.08v3.75a31,31,0,0,0,.73,5.19q-23.94-2.91-37.13-2.89h-6.11V57.34l-1,55.78Z" transform="translate(-3.58 -1)"/><path class="e6b4cbd0-0a60-43db-807e-31daf50b865a" d="M403,144.16V260.9l-3.67,2.21s-39.91,30.94-59.68,56c-22,27.9-43.75,79.84-43.75,79.84H272.84l-.24-1.8s3.22-31.29,7.34-50.93c7.5-35.94,13.29-56.51,29.72-89.31C332.07,212.14,386,160,403,144.16Z" transform="translate(-3.58 -1)"/><path class="a7ebdae2-0bb3-4980-8fea-6b68ae292f04" d="M403,279.66V399l-94.25-.06c8.36-25.09,18.2-40.16,34.24-62.56C361.43,310.65,391.91,287.6,403,279.66Z" transform="translate(-3.58 -1)"/><path class="a84c37e5-e150-41ee-bf65-9b39df834b9f" d="M315.79,1H403V118.65c-30.66,29.27-92.26,92.83-114.3,150-18.59,48.23-23.86,130.34-23.86,130.34H229.73l0-1.09c0-14.66,2.81-136.14,22.74-220.1C267.94,112.42,308,18.87,315.79,1Z" transform="translate(-3.58 -1)"/><path class="a7ebdae2-0bb3-4980-8fea-6b68ae292f04" d="M129.85,1h165.4c-3.36,8.21-27.38,67.72-39.36,108C238.75,166.73,224,260.09,224,260.09s-19.59-95.44-42.31-153C165.85,66.85,134.13,8.79,129.85,1Z" transform="translate(-3.58 -1)"/><path class="a84c37e5-e150-41ee-bf65-9b39df834b9f" d="M221.67,399H203.09l-1.2-3.69c-25.27-78-39.2-115.9-92.69-168.48C78.82,197,23.34,167.44,3.58,157.4V1L5,1H111.06c9.29,16.66,63.35,115.21,83.5,185.9C217.43,267.09,221.67,399,221.67,399Z" transform="translate(-3.58 -1)"/><path class="e6b4cbd0-0a60-43db-807e-31daf50b865a" d="M194,399H111s-26.42-29.28-46.87-43.6C44.49,341.64,10.71,328,3.58,325.14V178.48C13.68,184,78,219.61,111,253.94,156.2,300.94,175.75,350,194,399Z" transform="translate(-3.58 -1)"/><path class="a7ebdae2-0bb3-4980-8fea-6b68ae292f04" d="M97,399H3.58V343.43l.32-1S45.91,347,97,399Z" transform="translate(-3.58 -1)"/><path class="edfc2d16-9647-48ab-8556-39bdc1f079a1" d="M537.2,243.64l1.86,27.71H537.2q-3.74-12.44-10.64-17.91A25.92,25.92,0,0,0,510,248a27.06,27.06,0,0,0-14.67,4.12q-6.56,4.13-10.31,13.14t-3.76,22.43a47.55,47.55,0,0,0,3.55,19.18,26.58,26.58,0,0,0,10.67,12.45,30.75,30.75,0,0,0,16.27,4.32,28.27,28.27,0,0,0,14-3.39q6.06-3.4,13.34-13.5l1.87,1.2q-6.13,10.89-14.31,15.94t-19.42,5q-20.26,0-31.39-15-8.3-11.17-8.3-26.33A46.87,46.87,0,0,1,473,265.1a39.61,39.61,0,0,1,15.07-15.84A40.64,40.64,0,0,1,509,243.64,38.51,38.51,0,0,1,526.44,248a9.34,9.34,0,0,0,3.6,1.33,4,4,0,0,0,2.83-1.14,9.53,9.53,0,0,0,2.23-4.51Z" transform="translate(-3.58 -1)"/><path class="edfc2d16-9647-48ab-8556-39bdc1f079a1" d="M635.71,270.33q12.49,0,20.08,9.5a29.17,29.17,0,0,1,6.43,18.64,35,35,0,0,1-3.55,15A25.19,25.19,0,0,1,635,328.72a23.34,23.34,0,0,1-19.78-9.93A30.7,30.7,0,0,1,609.07,300,33.23,33.23,0,0,1,612.83,285a25.08,25.08,0,0,1,22.88-14.64Zm-1.87,3.91a12.55,12.55,0,0,0-6.4,1.89c-2.15,1.27-3.88,3.48-5.2,6.65a31.81,31.81,0,0,0-2,12.2q0,12,4.78,20.75t12.6,8.72a11.76,11.76,0,0,0,9.62-4.81Q651,314.83,651,303.1q0-14.67-6.32-23.09A13,13,0,0,0,633.84,274.24Z" transform="translate(-3.58 -1)"/><path class="edfc2d16-9647-48ab-8556-39bdc1f079a1" d="M749,241.53v73.06c0,3.44.25,5.73.75,6.85a5.4,5.4,0,0,0,2.32,2.56q1.56.87,5.83.87V327h-27v-2.16c2.53,0,4.25-.26,5.17-.78a5.19,5.19,0,0,0,2.17-2.59c.52-1.2.78-3.51.78-6.91v-50a86.8,86.8,0,0,0-.42-11.45,5,5,0,0,0-1.35-2.92,3.59,3.59,0,0,0-2.38-.78,11.3,11.3,0,0,0-4,1l-1-2.1,16.42-6.74Z" transform="translate(-3.58 -1)"/><path class="edfc2d16-9647-48ab-8556-39bdc1f079a1" d="M850.93,270.33q12.51,0,20.09,9.5a29.17,29.17,0,0,1,6.43,18.64,35,35,0,0,1-3.55,15,25.19,25.19,0,0,1-23.63,15.28,23.34,23.34,0,0,1-19.78-9.93A30.7,30.7,0,0,1,824.3,300,33.23,33.23,0,0,1,828.06,285a25.08,25.08,0,0,1,22.87-14.64Zm-1.86,3.91a12.52,12.52,0,0,0-6.4,1.89c-2.15,1.27-3.88,3.48-5.2,6.65a31.81,31.81,0,0,0-2,12.2q0,12,4.78,20.75t12.6,8.72a11.76,11.76,0,0,0,9.62-4.81q3.78-4.81,3.79-16.54,0-14.67-6.32-23.09A13,13,0,0,0,849.07,274.24Z" transform="translate(-3.58 -1)"/><path class="edfc2d16-9647-48ab-8556-39bdc1f079a1" d="M961.64,282.06q6-6,7.1-6.92a21.48,21.48,0,0,1,5.83-3.54,16.33,16.33,0,0,1,6.2-1.27,13.69,13.69,0,0,1,8.89,3,14.83,14.83,0,0,1,5,8.72q6.2-7.21,10.47-9.47a18.49,18.49,0,0,1,8.78-2.26,13.69,13.69,0,0,1,7.78,2.26,14.94,14.94,0,0,1,5.38,7.36q1.32,3.49,1.33,10.95v23.69c0,3.44.26,5.81.78,7.09a5.17,5.17,0,0,0,2.22,2.26,11.22,11.22,0,0,0,5.29.93V327h-27.17v-2.16h1.14a9.5,9.5,0,0,0,5.53-1.39,5.35,5.35,0,0,0,2-3.06,38,38,0,0,0,.25-5.83V290.9c0-4.49-.55-7.66-1.63-9.5-1.56-2.57-4.07-3.85-7.51-3.85a14.38,14.38,0,0,0-6.41,1.59,34.76,34.76,0,0,0-7.78,5.92l-.12.67.12,2.58v26.28c0,3.76.21,6.11.63,7a5.17,5.17,0,0,0,2.37,2.32c1.16.62,3.15.93,5.95.93V327H976.2v-2.16c3,0,5.14-.36,6.28-1.08a5.66,5.66,0,0,0,2.37-3.25,32.06,32.06,0,0,0,.3-6V290.9q0-6.73-2-9.68a8.46,8.46,0,0,0-7.4-3.85,13.32,13.32,0,0,0-6.43,1.74,24.82,24.82,0,0,0-7.7,5.95v29.53c0,3.6.25,6,.76,7a5.23,5.23,0,0,0,2.22,2.44c1,.54,3,.81,6,.81V327H943.37v-2.16a12.16,12.16,0,0,0,5.29-.81,5.25,5.25,0,0,0,2.28-2.59c.52-1.18.78-3.48.78-6.88v-21q0-9.07-.54-11.72a4.77,4.77,0,0,0-1.32-2.74,3.74,3.74,0,0,0-2.47-.75,11.53,11.53,0,0,0-4,.9l-.91-2.16,16.6-6.74h2.58Z" transform="translate(-3.58 -1)"/><path class="edfc2d16-9647-48ab-8556-39bdc1f079a1" d="M1115.89,281.46q8-11.13,17.25-11.13,8.49,0,14.8,7.25t6.31,19.81q0,14.67-9.74,23.63-8.35,7.69-18.64,7.7a29.41,29.41,0,0,1-9.77-1.75,44.31,44.31,0,0,1-10.13-5.23V264.68q0-9.37-.45-11.54a5,5,0,0,0-1.42-2.95,3.68,3.68,0,0,0-2.4-.78,12.36,12.36,0,0,0-4.21,1l-.84-2.1,16.53-6.74h2.71Zm0,3.84v32.95a23,23,0,0,0,6.34,4.54,15.58,15.58,0,0,0,6.71,1.54q5.46,0,10.19-6t4.72-17.49q0-10.59-4.72-16.27t-10.74-5.68a14,14,0,0,0-6.37,1.62A28,28,0,0,0,1115.89,285.3Z" transform="translate(-3.58 -1)"/><path class="edfc2d16-9647-48ab-8556-39bdc1f079a1" d="M1241.09,270.33v44.26c0,3.44.25,5.74.75,6.88a5.3,5.3,0,0,0,2.23,2.56q1.47.84,5.38.84V327h-26.76v-2.16q4,0,5.41-.78a5.39,5.39,0,0,0,2.2-2.59c.54-1.2.81-3.51.81-6.91V293.36q0-9-.54-11.6a4.65,4.65,0,0,0-1.33-2.68,3.73,3.73,0,0,0-2.46-.75,12.06,12.06,0,0,0-4.09.9l-.84-2.16,16.59-6.74Zm-5-28.8a6.06,6.06,0,0,1,6.07,6.07,6,6,0,0,1-1.77,4.33,5.79,5.79,0,0,1-4.3,1.81,6.11,6.11,0,1,1,0-12.21Z" transform="translate(-3.58 -1)"/><path class="edfc2d16-9647-48ab-8556-39bdc1f079a1" d="M1347.23,319.1q-8.48,6.54-10.64,7.57a16.32,16.32,0,0,1-6.92,1.5,12.42,12.42,0,0,1-9.41-3.9,14.39,14.39,0,0,1-3.69-10.29,13.1,13.1,0,0,1,1.8-7q2.46-4.1,8.57-7.7t20.29-8.77v-2.17q0-8.24-2.61-11.3c-1.75-2.05-4.28-3.07-7.61-3.07a8.53,8.53,0,0,0-6,2,6.15,6.15,0,0,0-2.29,4.69l.12,3.49a6,6,0,0,1-1.41,4.27,4.85,4.85,0,0,1-3.7,1.5,4.69,4.69,0,0,1-3.64-1.56,6.13,6.13,0,0,1-1.41-4.27q0-5.18,5.29-9.5t14.85-4.33q7.34,0,12,2.47a11.31,11.31,0,0,1,5.23,5.83q1.08,2.58,1.08,10.58v18.7a85.8,85.8,0,0,0,.3,9.65,4,4,0,0,0,1,2.38,2.38,2.38,0,0,0,1.6.6,3.27,3.27,0,0,0,1.68-.42,37.68,37.68,0,0,0,4.87-4.39v3.37q-6.73,9-12.87,9a5.87,5.87,0,0,1-4.69-2C1347.87,324.71,1347.27,322.38,1347.23,319.1Zm0-3.91v-21a120.21,120.21,0,0,0-11.72,5.11,20.23,20.23,0,0,0-6.8,5.54,10.68,10.68,0,0,0-2,6.31,10.31,10.31,0,0,0,2.58,7.18,7.84,7.84,0,0,0,6,2.86Q1339.77,321.2,1347.23,315.19Z" transform="translate(-3.58 -1)"/><rect class="b2c84d7b-5e0e-4dad-8528-0d220f8df5ae" x="459.49" y="377.84" width="769.85" height="20.16"/><rect class="a84c37e5-e150-41ee-bf65-9b39df834b9f" x="1229.34" y="377.84" width="97.33" height="20.16"/><rect class="e6b4cbd0-0a60-43db-807e-31daf50b865a" x="1324.12" y="377.84" width="86.88" height="20.16"/><rect class="a7ebdae2-0bb3-4980-8fea-6b68ae292f04" x="1295.78" y="377.84" width="16.38" height="20.16"/></svg>